<?xml version="1.0" encoding="UTF-8"?>
<svg xmlns="http://www.w3.org/2000/svg" xmlns:xlink="http://www.w3.org/1999/xlink" width="50pt" height="50pt" viewBox="0 0 50 50" version="1.1">
<g id="surface1">
<path style=" stroke:none;fill-rule:nonzero;fill:rgb(75.294118%,89.019608%,90.588235%);fill-opacity:1;" d="M 11.289062 8.066406 L 38.710938 8.066406 L 38.710938 41.933594 L 11.289062 41.933594 Z M 11.289062 8.066406 "/>
<path style=" stroke:none;fill-rule:nonzero;fill:rgb(24.705882%,22.745098%,20.392157%);fill-opacity:1;" d="M 13.710938 39.515625 L 36.289062 39.515625 L 36.289062 10.484375 L 13.710938 10.484375 Z M 15.324219 12.097656 L 34.675781 12.097656 L 34.675781 37.902344 L 15.324219 37.902344 Z M 15.324219 12.097656 "/>
<path style=" stroke:none;fill-rule:nonzero;fill:rgb(24.705882%,22.745098%,20.392157%);fill-opacity:1;" d="M 41.933594 0 L 8.066406 0 C 5.394531 0 3.226562 2.171875 3.226562 4.839844 L 3.226562 45.160156 C 3.226562 47.828125 5.394531 50 8.066406 50 L 41.933594 50 C 44.605469 50 46.773438 47.828125 46.773438 45.160156 L 46.773438 4.839844 C 46.773438 2.171875 44.605469 0 41.933594 0 Z M 42.742188 22.582031 L 42.742188 21.371094 C 42.742188 20.703125 43.285156 20.160156 43.953125 20.160156 C 44.617188 20.160156 45.160156 20.703125 45.160156 21.371094 C 45.160156 22.925781 43.894531 24.195312 42.339844 24.195312 C 40.78125 24.195312 39.515625 22.925781 39.515625 21.371094 C 39.515625 19.246094 40.34375 17.25 41.847656 15.746094 C 42.78125 14.8125 43.8125 13.964844 44.914062 13.230469 L 45.160156 13.066406 L 45.160156 18.832031 C 44.792969 18.65625 44.386719 18.546875 43.953125 18.546875 C 42.394531 18.546875 41.128906 19.816406 41.128906 21.371094 L 41.128906 22.582031 Z M 41.128906 27.417969 L 41.128906 28.628906 C 41.128906 30.183594 42.394531 31.453125 43.953125 31.453125 C 44.386719 31.453125 44.792969 31.34375 45.160156 31.167969 L 45.160156 37.570312 L 41.847656 34.253906 C 40.34375 32.75 39.515625 30.753906 39.515625 28.628906 C 39.515625 27.074219 40.78125 25.804688 42.339844 25.804688 C 43.894531 25.804688 45.160156 27.074219 45.160156 28.628906 C 45.160156 29.296875 44.617188 29.839844 43.953125 29.839844 C 43.285156 29.839844 42.742188 29.296875 42.742188 28.628906 L 42.742188 27.417969 Z M 7.257812 27.417969 L 7.257812 28.628906 C 7.257812 29.296875 6.714844 29.839844 6.046875 29.839844 C 5.382812 29.839844 4.839844 29.296875 4.839844 28.628906 C 4.839844 27.074219 6.105469 25.804688 7.660156 25.804688 C 9.21875 25.804688 10.484375 27.074219 10.484375 28.628906 C 10.484375 30.753906 9.65625 32.75 8.152344 34.253906 L 4.839844 37.570312 L 4.839844 31.167969 C 5.207031 31.34375 5.613281 31.453125 6.046875 31.453125 C 7.605469 31.453125 8.871094 30.183594 8.871094 28.628906 L 8.871094 27.417969 Z M 8.871094 22.582031 L 8.871094 21.371094 C 8.871094 19.816406 7.605469 18.546875 6.046875 18.546875 C 5.613281 18.546875 5.207031 18.65625 4.839844 18.832031 L 4.839844 13.066406 L 5.085938 13.230469 C 6.1875 13.964844 7.21875 14.8125 8.15625 15.746094 C 9.65625 17.25 10.484375 19.246094 10.484375 21.371094 C 10.484375 22.925781 9.21875 24.195312 7.660156 24.195312 C 6.105469 24.195312 4.839844 22.925781 4.839844 21.371094 C 4.839844 20.703125 5.382812 20.160156 6.046875 20.160156 C 6.714844 20.160156 7.257812 20.703125 7.257812 21.371094 L 7.257812 22.582031 Z M 42.53125 38.535156 C 42.152344 37.691406 41.308594 37.097656 40.324219 37.097656 C 40.039062 37.097656 39.769531 37.15625 39.515625 37.246094 L 39.515625 33.949219 C 39.859375 34.460938 40.257812 34.945312 40.707031 35.394531 L 43.582031 38.273438 Z M 39.515625 39.515625 C 39.515625 39.070312 39.878906 38.710938 40.324219 38.710938 C 40.769531 38.710938 41.128906 39.070312 41.128906 39.515625 C 41.128906 39.960938 40.769531 40.324219 40.324219 40.324219 C 39.878906 40.324219 39.515625 39.960938 39.515625 39.515625 Z M 39.515625 24.789062 C 39.605469 24.863281 39.699219 24.933594 39.796875 25 C 39.699219 25.066406 39.605469 25.136719 39.515625 25.210938 Z M 37.902344 41.128906 L 12.097656 41.128906 L 12.097656 8.871094 L 37.902344 8.871094 Z M 25.210938 42.742188 C 25.136719 42.832031 25.066406 42.925781 25 43.023438 C 24.933594 42.925781 24.863281 42.832031 24.789062 42.742188 Z M 6.417969 38.273438 L 9.292969 35.394531 C 9.742188 34.945312 10.140625 34.460938 10.484375 33.949219 L 10.484375 37.246094 C 10.230469 37.15625 9.960938 37.097656 9.675781 37.097656 C 8.691406 37.097656 7.847656 37.691406 7.46875 38.535156 Z M 7.5625 11.636719 C 7.972656 12.386719 8.761719 12.902344 9.675781 12.902344 C 9.960938 12.902344 10.230469 12.84375 10.484375 12.753906 L 10.484375 16.050781 C 10.140625 15.539062 9.742188 15.054688 9.292969 14.605469 C 8.414062 13.726562 7.453125 12.917969 6.433594 12.199219 Z M 10.484375 10.484375 C 10.484375 10.929688 10.121094 11.289062 9.675781 11.289062 C 9.230469 11.289062 8.871094 10.929688 8.871094 10.484375 C 8.871094 10.039062 9.230469 9.675781 9.675781 9.675781 C 10.121094 9.675781 10.484375 10.039062 10.484375 10.484375 Z M 10.484375 25.210938 C 10.394531 25.136719 10.300781 25.066406 10.203125 25 C 10.300781 24.933594 10.394531 24.863281 10.484375 24.789062 Z M 10.484375 39.515625 C 10.484375 39.960938 10.121094 40.324219 9.675781 40.324219 C 9.230469 40.324219 8.871094 39.960938 8.871094 39.515625 C 8.871094 39.070312 9.230469 38.710938 9.675781 38.710938 C 10.121094 38.710938 10.484375 39.070312 10.484375 39.515625 Z M 24.789062 7.257812 C 24.863281 7.167969 24.933594 7.074219 25 6.976562 C 25.066406 7.074219 25.136719 7.167969 25.210938 7.257812 Z M 41.128906 10.484375 C 41.128906 10.929688 40.769531 11.289062 40.324219 11.289062 C 39.878906 11.289062 39.515625 10.929688 39.515625 10.484375 C 39.515625 10.039062 39.878906 9.675781 40.324219 9.675781 C 40.769531 9.675781 41.128906 10.039062 41.128906 10.484375 Z M 39.515625 12.753906 C 39.769531 12.84375 40.039062 12.902344 40.324219 12.902344 C 41.238281 12.902344 42.027344 12.386719 42.4375 11.636719 L 43.566406 12.199219 C 42.542969 12.917969 41.585938 13.726562 40.703125 14.605469 C 40.257812 15.054688 39.859375 15.539062 39.515625 16.050781 Z M 42.679688 9.953125 C 42.652344 9.84375 42.617188 9.734375 42.578125 9.628906 C 43.566406 9.5 44.453125 9.070312 45.160156 8.433594 L 45.160156 11.195312 Z M 36.289062 7.257812 C 35.84375 7.257812 35.484375 6.894531 35.484375 6.453125 C 35.484375 6.007812 35.84375 5.644531 36.289062 5.644531 C 36.734375 5.644531 37.097656 6.007812 37.097656 6.453125 C 37.097656 6.894531 36.734375 7.257812 36.289062 7.257812 Z M 33.871094 6.453125 C 33.871094 6.734375 33.929688 7.003906 34.019531 7.257812 L 31.167969 7.257812 C 31.34375 6.890625 31.453125 6.484375 31.453125 6.046875 C 31.453125 4.492188 30.183594 3.226562 28.628906 3.226562 L 27.417969 3.226562 L 27.417969 4.839844 L 28.628906 4.839844 C 29.296875 4.839844 29.839844 5.382812 29.839844 6.046875 C 29.839844 6.714844 29.296875 7.257812 28.628906 7.257812 C 27.074219 7.257812 25.804688 5.992188 25.804688 4.433594 C 25.804688 2.878906 27.074219 1.613281 28.628906 1.613281 C 30.753906 1.613281 32.75 2.441406 34.253906 3.941406 L 34.839844 4.527344 C 34.253906 4.96875 33.871094 5.664062 33.871094 6.453125 Z M 25 1.894531 C 24.933594 1.796875 24.863281 1.703125 24.789062 1.613281 L 25.210938 1.613281 C 25.136719 1.703125 25.066406 1.796875 25 1.894531 Z M 24.195312 4.433594 C 24.195312 5.992188 22.925781 7.257812 21.371094 7.257812 C 20.703125 7.257812 20.160156 6.714844 20.160156 6.046875 C 20.160156 5.382812 20.703125 4.839844 21.371094 4.839844 L 22.582031 4.839844 L 22.582031 3.226562 L 21.371094 3.226562 C 19.816406 3.226562 18.546875 4.492188 18.546875 6.046875 C 18.546875 6.484375 18.65625 6.890625 18.832031 7.257812 L 15.980469 7.257812 C 16.070312 7.003906 16.128906 6.734375 16.128906 6.453125 C 16.128906 5.664062 15.746094 4.96875 15.160156 4.527344 L 15.746094 3.941406 C 17.25 2.441406 19.246094 1.613281 21.371094 1.613281 C 22.925781 1.613281 24.195312 2.878906 24.195312 4.433594 Z M 13.710938 5.644531 C 14.15625 5.644531 14.515625 6.007812 14.515625 6.453125 C 14.515625 6.894531 14.15625 7.257812 13.710938 7.257812 C 13.265625 7.257812 12.902344 6.894531 12.902344 6.453125 C 12.902344 6.007812 13.265625 5.644531 13.710938 5.644531 Z M 7.320312 9.953125 L 4.839844 11.195312 L 4.839844 8.433594 C 5.542969 9.070312 6.433594 9.5 7.421875 9.628906 C 7.382812 9.734375 7.347656 9.84375 7.320312 9.953125 Z M 5.121094 25 C 5.023438 25.066406 4.929688 25.136719 4.839844 25.210938 L 4.839844 24.789062 C 4.929688 24.863281 5.023438 24.933594 5.121094 25 Z M 7.359375 40.171875 C 7.378906 40.238281 7.398438 40.304688 7.421875 40.371094 C 6.433594 40.503906 5.542969 40.929688 4.839844 41.566406 L 4.839844 39.539062 Z M 13.710938 42.742188 C 14.15625 42.742188 14.515625 43.105469 14.515625 43.546875 C 14.515625 43.992188 14.15625 44.355469 13.710938 44.355469 C 13.265625 44.355469 12.902344 43.992188 12.902344 43.546875 C 12.902344 43.105469 13.265625 42.742188 13.710938 42.742188 Z M 16.128906 43.546875 C 16.128906 43.265625 16.070312 42.996094 15.980469 42.742188 L 18.832031 42.742188 C 18.65625 43.109375 18.546875 43.515625 18.546875 43.953125 C 18.546875 45.507812 19.816406 46.773438 21.371094 46.773438 L 22.582031 46.773438 L 22.582031 45.160156 L 21.371094 45.160156 C 20.703125 45.160156 20.160156 44.617188 20.160156 43.953125 C 20.160156 43.285156 20.703125 42.742188 21.371094 42.742188 C 22.925781 42.742188 24.195312 44.007812 24.195312 45.566406 C 24.195312 47.121094 22.925781 48.386719 21.371094 48.386719 C 19.246094 48.386719 17.25 47.558594 15.746094 46.058594 L 15.160156 45.472656 C 15.746094 45.03125 16.128906 44.335938 16.128906 43.546875 Z M 25 48.105469 C 25.066406 48.203125 25.136719 48.296875 25.210938 48.386719 L 24.789062 48.386719 C 24.863281 48.296875 24.933594 48.203125 25 48.105469 Z M 25.804688 45.566406 C 25.804688 44.007812 27.074219 42.742188 28.628906 42.742188 C 29.296875 42.742188 29.839844 43.285156 29.839844 43.953125 C 29.839844 44.617188 29.296875 45.160156 28.628906 45.160156 L 27.417969 45.160156 L 27.417969 46.773438 L 28.628906 46.773438 C 30.183594 46.773438 31.453125 45.507812 31.453125 43.953125 C 31.453125 43.515625 31.34375 43.109375 31.167969 42.742188 L 34.019531 42.742188 C 33.929688 42.996094 33.871094 43.265625 33.871094 43.546875 C 33.871094 44.335938 34.253906 45.03125 34.839844 45.472656 L 34.253906 46.058594 C 32.75 47.558594 30.753906 48.386719 28.628906 48.386719 C 27.074219 48.386719 25.804688 47.121094 25.804688 45.566406 Z M 36.289062 44.355469 C 35.84375 44.355469 35.484375 43.992188 35.484375 43.546875 C 35.484375 43.105469 35.84375 42.742188 36.289062 42.742188 C 36.734375 42.742188 37.097656 43.105469 37.097656 43.546875 C 37.097656 43.992188 36.734375 44.355469 36.289062 44.355469 Z M 42.640625 40.171875 L 45.160156 39.542969 L 45.160156 41.566406 C 44.457031 40.929688 43.566406 40.503906 42.578125 40.371094 C 42.601562 40.304688 42.621094 40.238281 42.640625 40.171875 Z M 44.878906 25 C 44.976562 24.933594 45.070312 24.863281 45.160156 24.789062 L 45.160156 25.210938 C 45.070312 25.136719 44.976562 25.066406 44.878906 25 Z M 45.160156 4.839844 C 45.160156 6.617188 43.714844 8.066406 41.933594 8.066406 C 40.15625 8.066406 38.710938 6.617188 38.710938 4.839844 C 38.710938 3.058594 40.15625 1.613281 41.933594 1.613281 C 43.714844 1.613281 45.160156 3.058594 45.160156 4.839844 Z M 38.339844 1.613281 C 37.703125 2.320312 37.277344 3.210938 37.144531 4.195312 C 36.992188 4.136719 36.828125 4.097656 36.660156 4.070312 L 35.394531 2.804688 C 34.945312 2.355469 34.460938 1.957031 33.949219 1.613281 Z M 14.605469 2.800781 L 13.339844 4.070312 C 13.171875 4.09375 13.007812 4.136719 12.855469 4.195312 C 12.722656 3.210938 12.296875 2.320312 11.660156 1.613281 L 16.050781 1.613281 C 15.539062 1.957031 15.054688 2.355469 14.605469 2.800781 Z M 8.066406 1.613281 C 9.84375 1.613281 11.289062 3.058594 11.289062 4.839844 C 11.289062 6.617188 9.84375 8.066406 8.066406 8.066406 C 6.285156 8.066406 4.839844 6.617188 4.839844 4.839844 C 4.839844 3.058594 6.285156 1.613281 8.066406 1.613281 Z M 4.839844 45.160156 C 4.839844 43.382812 6.285156 41.933594 8.066406 41.933594 C 9.84375 41.933594 11.289062 43.382812 11.289062 45.160156 C 11.289062 46.941406 9.84375 48.386719 8.066406 48.386719 C 6.285156 48.386719 4.839844 46.941406 4.839844 45.160156 Z M 11.660156 48.386719 C 12.296875 47.679688 12.722656 46.789062 12.855469 45.804688 C 13.007812 45.863281 13.171875 45.902344 13.339844 45.929688 L 14.605469 47.195312 C 15.054688 47.644531 15.539062 48.042969 16.050781 48.386719 Z M 35.394531 47.199219 L 36.660156 45.929688 C 36.828125 45.90625 36.992188 45.863281 37.144531 45.804688 C 37.277344 46.792969 37.707031 47.679688 38.339844 48.386719 L 33.949219 48.386719 C 34.460938 48.042969 34.945312 47.644531 35.394531 47.199219 Z M 41.933594 48.386719 C 40.15625 48.386719 38.710938 46.941406 38.710938 45.160156 C 38.710938 43.382812 40.15625 41.933594 41.933594 41.933594 C 43.714844 41.933594 45.160156 43.382812 45.160156 45.160156 C 45.160156 46.941406 43.714844 48.386719 41.933594 48.386719 Z M 41.933594 48.386719 "/>
<path style=" stroke:none;fill-rule:nonzero;fill:rgb(24.705882%,22.745098%,20.392157%);fill-opacity:1;" d="M 41.128906 4.03125 L 42.742188 4.03125 L 42.742188 5.644531 L 41.128906 5.644531 Z M 41.128906 4.03125 "/>
<path style=" stroke:none;fill-rule:nonzero;fill:rgb(24.705882%,22.745098%,20.392157%);fill-opacity:1;" d="M 7.257812 4.03125 L 8.871094 4.03125 L 8.871094 5.644531 L 7.257812 5.644531 Z M 7.257812 4.03125 "/>
<path style=" stroke:none;fill-rule:nonzero;fill:rgb(24.705882%,22.745098%,20.392157%);fill-opacity:1;" d="M 41.128906 44.355469 L 42.742188 44.355469 L 42.742188 45.96875 L 41.128906 45.96875 Z M 41.128906 44.355469 "/>
<path style=" stroke:none;fill-rule:nonzero;fill:rgb(24.705882%,22.745098%,20.392157%);fill-opacity:1;" d="M 7.257812 44.355469 L 8.871094 44.355469 L 8.871094 45.96875 L 7.257812 45.96875 Z M 7.257812 44.355469 "/>
<path style=" stroke:none;fill-rule:nonzero;fill:rgb(24.705882%,22.745098%,20.392157%);fill-opacity:1;" d="M 16.933594 34.675781 L 18.546875 34.675781 L 18.546875 36.289062 L 16.933594 36.289062 Z M 16.933594 34.675781 "/>
<path style=" stroke:none;fill-rule:nonzero;fill:rgb(24.705882%,22.745098%,20.392157%);fill-opacity:1;" d="M 16.933594 13.710938 L 18.546875 13.710938 L 18.546875 33.066406 L 16.933594 33.066406 Z M 16.933594 13.710938 "/>
</g>
</svg>
