<?xml version="1.0" encoding="UTF-8"?>
<svg xmlns="http://www.w3.org/2000/svg" xmlns:xlink="http://www.w3.org/1999/xlink" width="50pt" height="50pt" viewBox="0 0 50 50" version="1.1">
<g id="surface1">
<path style=" stroke:none;fill-rule:nonzero;fill:rgb(20%,20%,20%);fill-opacity:1;" d="M 33.699219 31.671875 L 40.921875 38.890625 L 50 29.8125 L 40.921875 20.738281 L 32.648438 29.011719 L 30.492188 29.011719 L 30.492188 2.53125 C 30.492188 1.207031 29.410156 0.125 28.085938 0.125 L 2.40625 0.125 C 1.078125 0.125 0 1.207031 0 2.53125 L 0 47.46875 C 0 48.792969 1.078125 49.875 2.40625 49.875 L 42.414062 49.875 C 43.757812 49.875 45.007812 49.207031 45.753906 48.085938 L 49.75 42.09375 L 49.75 40.246094 L 33.699219 40.246094 Z M 32.097656 40.246094 L 22.46875 40.246094 L 22.46875 30.617188 L 32.097656 30.617188 Z M 40.921875 23.007812 L 47.730469 29.8125 L 40.921875 36.621094 L 34.113281 29.8125 Z M 1.605469 47.46875 L 1.605469 2.53125 C 1.605469 2.089844 1.964844 1.730469 2.40625 1.730469 L 28.085938 1.730469 C 28.527344 1.730469 28.886719 2.089844 28.886719 2.53125 L 28.886719 29.011719 L 20.863281 29.011719 L 20.863281 40.246094 L 19.257812 40.246094 L 19.257812 42.09375 L 23.253906 48.089844 C 23.296875 48.152344 23.347656 48.210938 23.390625 48.269531 L 2.40625 48.269531 C 1.964844 48.269531 1.605469 47.910156 1.605469 47.46875 Z M 47.980469 41.851562 L 44.417969 47.199219 C 43.96875 47.871094 43.222656 48.269531 42.414062 48.269531 L 26.59375 48.269531 C 25.785156 48.269531 25.039062 47.871094 24.589844 47.199219 L 21.023438 41.851562 Z M 47.980469 41.851562 "/>
<path style=" stroke:none;fill-rule:nonzero;fill:rgb(20%,20%,20%);fill-opacity:1;" d="M 24.070312 32.222656 L 25.675781 32.222656 L 25.675781 33.828125 L 24.070312 33.828125 Z M 24.070312 32.222656 "/>
<path style=" stroke:none;fill-rule:nonzero;fill:rgb(20%,20%,20%);fill-opacity:1;" d="M 28.886719 32.222656 L 30.492188 32.222656 L 30.492188 33.828125 L 28.886719 33.828125 Z M 28.886719 32.222656 "/>
<path style=" stroke:none;fill-rule:nonzero;fill:rgb(20%,20%,20%);fill-opacity:1;" d="M 24.070312 37.035156 L 25.675781 37.035156 L 25.675781 38.640625 L 24.070312 38.640625 Z M 24.070312 37.035156 "/>
<path style=" stroke:none;fill-rule:nonzero;fill:rgb(20%,20%,20%);fill-opacity:1;" d="M 28.886719 37.035156 L 30.492188 37.035156 L 30.492188 38.640625 L 28.886719 38.640625 Z M 28.886719 37.035156 "/>
<path style=" stroke:none;fill-rule:nonzero;fill:rgb(20%,20%,20%);fill-opacity:1;" d="M 38.652344 29.816406 L 37.519531 30.949219 L 36.382812 29.816406 L 37.519531 28.679688 Z M 38.652344 29.816406 "/>
<path style=" stroke:none;fill-rule:nonzero;fill:rgb(20%,20%,20%);fill-opacity:1;" d="M 42.058594 26.410156 L 40.921875 27.542969 L 39.789062 26.410156 L 40.921875 25.273438 Z M 42.058594 26.410156 "/>
<path style=" stroke:none;fill-rule:nonzero;fill:rgb(20%,20%,20%);fill-opacity:1;" d="M 42.054688 33.21875 L 40.921875 34.355469 L 39.785156 33.222656 L 40.921875 32.085938 Z M 42.054688 33.21875 "/>
<path style=" stroke:none;fill-rule:nonzero;fill:rgb(20%,20%,20%);fill-opacity:1;" d="M 45.460938 29.816406 L 44.324219 30.949219 L 43.191406 29.816406 L 44.324219 28.679688 Z M 45.460938 29.816406 "/>
<path style=" stroke:none;fill-rule:nonzero;fill:rgb(20%,20%,20%);fill-opacity:1;" d="M 42.058594 29.816406 L 40.921875 30.949219 L 39.789062 29.816406 L 40.921875 28.679688 Z M 42.058594 29.816406 "/>
<path style=" stroke:none;fill-rule:nonzero;fill:rgb(20%,20%,20%);fill-opacity:1;" d="M 3.210938 3.335938 L 6.417969 3.335938 L 6.417969 4.941406 L 3.210938 4.941406 Z M 3.210938 3.335938 "/>
<path style=" stroke:none;fill-rule:nonzero;fill:rgb(75.294118%,89.019608%,90.588235%);fill-opacity:1;" d="M 15.246094 32.5 L 7.972656 25.953125 C 6.984375 25.0625 6.417969 23.792969 6.417969 22.46875 C 6.417969 19.882812 8.523438 17.777344 11.109375 17.777344 L 11.230469 17.777344 C 12.480469 17.777344 13.65625 18.265625 14.542969 19.152344 L 15.246094 19.851562 L 15.945312 19.152344 C 16.832031 18.265625 18.011719 17.777344 19.261719 17.777344 L 19.382812 17.777344 C 21.96875 17.777344 24.070312 19.882812 24.070312 22.46875 C 24.070312 23.792969 23.507812 25.0625 22.519531 25.953125 Z M 15.246094 32.5 "/>
</g>
</svg>
