<?xml version="1.0" encoding="UTF-8"?>
<svg xmlns="http://www.w3.org/2000/svg" xmlns:xlink="http://www.w3.org/1999/xlink" width="50pt" height="50pt" viewBox="0 0 50 50" version="1.1">
<g id="surface1">
<path style=" stroke:none;fill-rule:nonzero;fill:rgb(75.294118%,89.019608%,90.588235%);fill-opacity:1;" d="M 3.226562 12.902344 L 4.839844 12.902344 L 4.839844 24.195312 L 3.226562 24.195312 Z M 3.226562 12.902344 "/>
<path style=" stroke:none;fill-rule:nonzero;fill:rgb(75.294118%,89.019608%,90.588235%);fill-opacity:1;" d="M 15.324219 23.886719 L 15.324219 16.4375 L 22.769531 20.160156 Z M 16.933594 19.046875 L 16.933594 21.277344 L 19.164062 20.160156 Z M 16.933594 19.046875 "/>
<path style=" stroke:none;fill-rule:nonzero;fill:rgb(75.294118%,89.019608%,90.588235%);fill-opacity:1;" d="M 33.871094 18.546875 C 25.410156 18.546875 18.546875 25.410156 18.546875 33.871094 C 18.546875 42.332031 25.410156 49.195312 33.871094 49.195312 C 42.332031 49.195312 49.195312 42.332031 49.195312 33.871094 C 49.195312 25.410156 42.332031 18.546875 33.871094 18.546875 Z M 23.917969 33.179688 C 22.648438 32.769531 21.953125 31.402344 22.367188 30.132812 C 22.777344 28.863281 24.144531 28.167969 25.414062 28.578125 C 26.683594 28.992188 27.378906 30.355469 26.96875 31.628906 C 26.554688 32.898438 25.191406 33.59375 23.917969 33.179688 Z M 30.140625 43.121094 C 29.355469 44.203125 27.84375 44.445312 26.761719 43.65625 C 25.679688 42.871094 25.441406 41.359375 26.226562 40.277344 C 27.011719 39.199219 28.523438 38.957031 29.605469 39.742188 C 30.683594 40.527344 30.925781 42.042969 30.140625 43.121094 Z M 33.871094 35.484375 C 32.980469 35.484375 32.257812 34.761719 32.257812 33.871094 C 32.257812 32.980469 32.980469 32.257812 33.871094 32.257812 C 34.761719 32.257812 35.484375 32.980469 35.484375 33.871094 C 35.484375 34.761719 34.761719 35.484375 33.871094 35.484375 Z M 33.871094 26.613281 C 32.535156 26.613281 31.453125 25.53125 31.453125 24.195312 C 31.453125 22.855469 32.535156 21.773438 33.871094 21.773438 C 35.207031 21.773438 36.289062 22.855469 36.289062 24.195312 C 36.289062 25.53125 35.207031 26.613281 33.871094 26.613281 Z M 40.980469 43.65625 C 39.902344 44.441406 38.386719 44.203125 37.601562 43.121094 C 36.816406 42.042969 37.054688 40.527344 38.136719 39.742188 C 39.21875 38.957031 40.730469 39.195312 41.515625 40.277344 C 42.300781 41.359375 42.0625 42.871094 40.980469 43.65625 Z M 43.824219 33.179688 C 42.550781 33.59375 41.1875 32.898438 40.773438 31.628906 C 40.359375 30.355469 41.054688 28.992188 42.328125 28.578125 C 43.597656 28.167969 44.964844 28.863281 45.375 30.132812 C 45.789062 31.402344 45.09375 32.769531 43.824219 33.179688 Z M 43.824219 33.179688 "/>
<path style=" stroke:none;fill-rule:nonzero;fill:rgb(24.705882%,22.745098%,20.392157%);fill-opacity:1;" d="M 2.171875 25.804688 C 2.433594 25.804688 2.691406 25.757812 2.933594 25.667969 L 8.066406 23.746094 L 8.066406 24.195312 C 8.066406 25.527344 9.148438 26.613281 10.484375 26.613281 L 18.546875 26.613281 L 18.546875 25 L 12.902344 25 L 12.902344 15.324219 L 24.195312 15.324219 L 24.195312 18.546875 L 25.804688 18.546875 L 25.804688 13.710938 L 11.289062 13.710938 L 11.289062 25 L 10.484375 25 C 10.039062 25 9.675781 24.636719 9.675781 24.195312 L 9.675781 12.902344 C 9.675781 12.457031 10.039062 12.097656 10.484375 12.097656 L 26.613281 12.097656 C 27.058594 12.097656 27.417969 12.457031 27.417969 12.902344 L 27.417969 16.933594 L 29.03125 16.933594 L 29.03125 12.902344 C 29.03125 11.570312 27.945312 10.484375 26.613281 10.484375 L 20.96875 10.484375 L 20.96875 4.839844 C 20.96875 2.617188 19.160156 0.804688 16.933594 0.804688 L 11.789062 0.804688 C 11.222656 0.308594 10.488281 0 9.675781 0 L 6.453125 0 C 4.671875 0 3.226562 1.445312 3.226562 3.226562 C 3.226562 5.003906 4.671875 6.453125 6.453125 6.453125 L 9.675781 6.453125 C 10.488281 6.453125 11.222656 6.140625 11.789062 5.644531 L 16.128906 5.644531 L 16.128906 10.484375 L 10.484375 10.484375 C 9.148438 10.484375 8.066406 11.570312 8.066406 12.902344 L 8.066406 13.351562 L 2.933594 11.429688 C 2.6875 11.335938 2.433594 11.289062 2.171875 11.289062 C 0.972656 11.289062 0 12.265625 0 13.460938 L 0 23.632812 C 0 24.832031 0.972656 25.804688 2.171875 25.804688 Z M 4.839844 3.226562 C 4.839844 2.335938 5.5625 1.613281 6.453125 1.613281 L 6.453125 4.839844 C 5.5625 4.839844 4.839844 4.117188 4.839844 3.226562 Z M 9.675781 4.839844 L 8.066406 4.839844 L 8.066406 1.613281 L 9.675781 1.613281 C 10.566406 1.613281 11.289062 2.335938 11.289062 3.226562 C 11.289062 4.117188 10.566406 4.839844 9.675781 4.839844 Z M 16.128906 4.03125 L 12.789062 4.03125 C 12.855469 3.773438 12.902344 3.503906 12.902344 3.226562 C 12.902344 2.945312 12.855469 2.679688 12.789062 2.417969 L 16.933594 2.417969 C 18.269531 2.417969 19.355469 3.503906 19.355469 4.839844 L 19.355469 10.484375 L 17.742188 10.484375 L 17.742188 5.644531 C 17.742188 4.753906 17.019531 4.03125 16.128906 4.03125 Z M 1.613281 13.460938 C 1.613281 13.085938 2.015625 12.804688 2.367188 12.941406 L 8.066406 15.074219 L 8.066406 22.023438 L 2.367188 24.15625 C 2.015625 24.289062 1.613281 24.007812 1.613281 23.632812 Z M 1.613281 13.460938 "/>
<path style=" stroke:none;fill-rule:nonzero;fill:rgb(24.705882%,22.745098%,20.392157%);fill-opacity:1;" d="M 33.871094 17.742188 C 24.976562 17.742188 17.742188 24.976562 17.742188 33.871094 C 17.742188 40.261719 21.484375 45.777344 26.886719 48.386719 L 1.613281 48.386719 L 1.613281 34.675781 L 16.128906 34.675781 L 16.128906 33.066406 L 0 33.066406 L 0 50 L 33.871094 50 C 42.765625 50 50 42.765625 50 33.871094 C 50 24.976562 42.765625 17.742188 33.871094 17.742188 Z M 33.871094 48.386719 C 25.867188 48.386719 19.355469 41.875 19.355469 33.871094 C 19.355469 25.867188 25.867188 19.355469 33.871094 19.355469 C 41.875 19.355469 48.386719 25.867188 48.386719 33.871094 C 48.386719 41.875 41.875 48.386719 33.871094 48.386719 Z M 33.871094 48.386719 "/>
<path style=" stroke:none;fill-rule:nonzero;fill:rgb(24.705882%,22.745098%,20.392157%);fill-opacity:1;" d="M 33.871094 31.453125 C 32.535156 31.453125 31.453125 32.535156 31.453125 33.871094 C 31.453125 35.203125 32.535156 36.289062 33.871094 36.289062 C 35.203125 36.289062 36.289062 35.203125 36.289062 33.871094 C 36.289062 32.535156 35.203125 31.453125 33.871094 31.453125 Z M 33.871094 34.675781 C 33.425781 34.675781 33.066406 34.316406 33.066406 33.871094 C 33.066406 33.425781 33.425781 33.066406 33.871094 33.066406 C 34.316406 33.066406 34.675781 33.425781 34.675781 33.871094 C 34.675781 34.316406 34.316406 34.675781 33.871094 34.675781 Z M 33.871094 34.675781 "/>
<path style=" stroke:none;fill-rule:nonzero;fill:rgb(24.705882%,22.745098%,20.392157%);fill-opacity:1;" d="M 33.871094 27.417969 C 35.648438 27.417969 37.097656 25.972656 37.097656 24.195312 C 37.097656 22.414062 35.648438 20.96875 33.871094 20.96875 C 32.09375 20.96875 30.644531 22.414062 30.644531 24.195312 C 30.644531 25.972656 32.09375 27.417969 33.871094 27.417969 Z M 33.871094 22.582031 C 34.761719 22.582031 35.484375 23.304688 35.484375 24.195312 C 35.484375 25.082031 34.761719 25.804688 33.871094 25.804688 C 32.980469 25.804688 32.257812 25.082031 32.257812 24.195312 C 32.257812 23.304688 32.980469 22.582031 33.871094 22.582031 Z M 33.871094 22.582031 "/>
<path style=" stroke:none;fill-rule:nonzero;fill:rgb(24.705882%,22.745098%,20.392157%);fill-opacity:1;" d="M 27.734375 31.878906 C 28 31.058594 27.933594 30.183594 27.542969 29.417969 C 27.152344 28.648438 26.484375 28.078125 25.664062 27.8125 C 23.972656 27.261719 22.148438 28.191406 21.601562 29.882812 C 21.050781 31.574219 21.980469 33.398438 23.671875 33.949219 C 24 34.054688 24.335938 34.105469 24.664062 34.105469 C 26.023438 34.105469 27.292969 33.238281 27.734375 31.878906 Z M 26.199219 31.378906 C 26.066406 31.789062 25.78125 32.121094 25.398438 32.316406 C 25.015625 32.511719 24.578125 32.546875 24.167969 32.414062 C 23.324219 32.140625 22.859375 31.226562 23.132812 30.382812 C 23.265625 29.972656 23.550781 29.640625 23.933594 29.445312 C 24.164062 29.324219 24.414062 29.265625 24.664062 29.265625 C 24.832031 29.265625 25 29.292969 25.164062 29.347656 C 25.574219 29.480469 25.910156 29.765625 26.105469 30.148438 C 26.300781 30.53125 26.335938 30.96875 26.199219 31.378906 Z M 26.199219 31.378906 "/>
<path style=" stroke:none;fill-rule:nonzero;fill:rgb(24.705882%,22.745098%,20.392157%);fill-opacity:1;" d="M 30.078125 39.089844 C 29.382812 38.582031 28.53125 38.378906 27.679688 38.515625 C 26.828125 38.648438 26.078125 39.105469 25.574219 39.804688 C 25.066406 40.5 24.863281 41.355469 24.996094 42.203125 C 25.132812 43.054688 25.589844 43.804688 26.285156 44.308594 C 26.84375 44.714844 27.5 44.925781 28.175781 44.925781 C 28.347656 44.925781 28.515625 44.914062 28.6875 44.886719 C 29.539062 44.75 30.285156 44.292969 30.792969 43.597656 C 31.300781 42.898438 31.503906 42.046875 31.371094 41.195312 C 31.234375 40.34375 30.777344 39.597656 30.078125 39.089844 Z M 29.488281 42.648438 C 28.964844 43.367188 27.953125 43.527344 27.234375 43.003906 C 26.886719 42.75 26.65625 42.378906 26.589844 41.953125 C 26.523438 41.527344 26.625 41.101562 26.878906 40.753906 C 27.128906 40.402344 27.503906 40.175781 27.929688 40.105469 C 28.015625 40.09375 28.101562 40.085938 28.183594 40.085938 C 28.523438 40.085938 28.851562 40.195312 29.128906 40.394531 C 29.476562 40.648438 29.707031 41.023438 29.773438 41.449219 C 29.84375 41.875 29.742188 42.300781 29.488281 42.648438 Z M 29.488281 42.648438 "/>
<path style=" stroke:none;fill-rule:nonzero;fill:rgb(24.705882%,22.745098%,20.392157%);fill-opacity:1;" d="M 40.0625 38.515625 C 39.210938 38.378906 38.359375 38.582031 37.664062 39.089844 C 36.964844 39.597656 36.507812 40.34375 36.371094 41.195312 C 36.238281 42.046875 36.441406 42.898438 36.949219 43.597656 C 37.457031 44.292969 38.203125 44.75 39.054688 44.886719 C 39.226562 44.914062 39.394531 44.925781 39.566406 44.925781 C 40.242188 44.925781 40.898438 44.714844 41.453125 44.308594 C 42.152344 43.800781 42.609375 43.054688 42.746094 42.203125 C 42.878906 41.351562 42.675781 40.5 42.167969 39.804688 C 41.660156 39.105469 40.914062 38.648438 40.0625 38.515625 Z M 41.152344 41.953125 C 41.085938 42.378906 40.855469 42.75 40.507812 43.003906 C 39.789062 43.527344 38.777344 43.367188 38.253906 42.648438 C 38 42.300781 37.898438 41.875 37.96875 41.449219 C 38.035156 41.023438 38.265625 40.648438 38.613281 40.394531 C 38.890625 40.195312 39.21875 40.085938 39.554688 40.085938 C 39.640625 40.085938 39.726562 40.09375 39.8125 40.105469 C 40.238281 40.175781 40.609375 40.402344 40.863281 40.753906 C 41.117188 41.101562 41.21875 41.527344 41.152344 41.953125 Z M 41.152344 41.953125 "/>
<path style=" stroke:none;fill-rule:nonzero;fill:rgb(24.705882%,22.745098%,20.392157%);fill-opacity:1;" d="M 46.144531 29.882812 C 45.59375 28.191406 43.773438 27.261719 42.078125 27.8125 C 41.257812 28.078125 40.59375 28.648438 40.199219 29.417969 C 39.808594 30.183594 39.742188 31.058594 40.007812 31.878906 C 40.449219 33.238281 41.71875 34.105469 43.078125 34.105469 C 43.40625 34.105469 43.742188 34.054688 44.070312 33.949219 C 45.765625 33.398438 46.691406 31.574219 46.144531 29.882812 Z M 43.574219 32.414062 C 43.164062 32.546875 42.726562 32.511719 42.34375 32.316406 C 41.957031 32.121094 41.675781 31.789062 41.542969 31.378906 C 41.40625 30.96875 41.441406 30.53125 41.636719 30.148438 C 41.832031 29.765625 42.167969 29.480469 42.578125 29.347656 C 42.742188 29.292969 42.910156 29.265625 43.078125 29.265625 C 43.328125 29.265625 43.578125 29.328125 43.808594 29.445312 C 44.191406 29.640625 44.476562 29.972656 44.609375 30.382812 C 44.882812 31.226562 44.417969 32.140625 43.574219 32.414062 Z M 43.574219 32.414062 "/>
<path style=" stroke:none;fill-rule:nonzero;fill:rgb(75.294118%,89.019608%,90.588235%);fill-opacity:1;" d="M 3.226562 36.289062 L 4.839844 36.289062 L 4.839844 37.902344 L 3.226562 37.902344 Z M 3.226562 36.289062 "/>
<path style=" stroke:none;fill-rule:nonzero;fill:rgb(75.294118%,89.019608%,90.588235%);fill-opacity:1;" d="M 6.453125 36.289062 L 8.066406 36.289062 L 8.066406 37.902344 L 6.453125 37.902344 Z M 6.453125 36.289062 "/>
<path style=" stroke:none;fill-rule:nonzero;fill:rgb(75.294118%,89.019608%,90.588235%);fill-opacity:1;" d="M 9.675781 36.289062 L 11.289062 36.289062 L 11.289062 37.902344 L 9.675781 37.902344 Z M 9.675781 36.289062 "/>
<path style=" stroke:none;fill-rule:nonzero;fill:rgb(75.294118%,89.019608%,90.588235%);fill-opacity:1;" d="M 12.902344 36.289062 L 14.515625 36.289062 L 14.515625 37.902344 L 12.902344 37.902344 Z M 12.902344 36.289062 "/>
<path style=" stroke:none;fill-rule:nonzero;fill:rgb(75.294118%,89.019608%,90.588235%);fill-opacity:1;" d="M 16.128906 36.289062 L 17.742188 36.289062 L 17.742188 37.902344 L 16.128906 37.902344 Z M 16.128906 36.289062 "/>
<path style=" stroke:none;fill-rule:nonzero;fill:rgb(75.294118%,89.019608%,90.588235%);fill-opacity:1;" d="M 3.226562 45.160156 L 4.839844 45.160156 L 4.839844 46.773438 L 3.226562 46.773438 Z M 3.226562 45.160156 "/>
<path style=" stroke:none;fill-rule:nonzero;fill:rgb(75.294118%,89.019608%,90.588235%);fill-opacity:1;" d="M 6.453125 45.160156 L 8.066406 45.160156 L 8.066406 46.773438 L 6.453125 46.773438 Z M 6.453125 45.160156 "/>
<path style=" stroke:none;fill-rule:nonzero;fill:rgb(75.294118%,89.019608%,90.588235%);fill-opacity:1;" d="M 9.675781 45.160156 L 11.289062 45.160156 L 11.289062 46.773438 L 9.675781 46.773438 Z M 9.675781 45.160156 "/>
<path style=" stroke:none;fill-rule:nonzero;fill:rgb(75.294118%,89.019608%,90.588235%);fill-opacity:1;" d="M 12.902344 45.160156 L 14.515625 45.160156 L 14.515625 46.773438 L 12.902344 46.773438 Z M 12.902344 45.160156 "/>
<path style=" stroke:none;fill-rule:nonzero;fill:rgb(75.294118%,89.019608%,90.588235%);fill-opacity:1;" d="M 16.128906 45.160156 L 17.742188 45.160156 L 17.742188 46.773438 L 16.128906 46.773438 Z M 16.128906 45.160156 "/>
<path style=" stroke:none;fill-rule:nonzero;fill:rgb(75.294118%,89.019608%,90.588235%);fill-opacity:1;" d="M 19.355469 45.160156 L 20.96875 45.160156 L 20.96875 46.773438 L 19.355469 46.773438 Z M 19.355469 45.160156 "/>
</g>
</svg>
