<?xml version="1.0" encoding="UTF-8"?>
<svg xmlns="http://www.w3.org/2000/svg" xmlns:xlink="http://www.w3.org/1999/xlink" width="50pt" height="50pt" viewBox="0 0 50 50" version="1.1">
<g id="surface1">
<path style=" stroke:none;fill-rule:nonzero;fill:rgb(75.294118%,89.019608%,90.588235%);fill-opacity:1;" d="M 13.710938 26.84375 L 10.464844 27.425781 L 6 29.890625 L 6.835938 34.726562 L 11.855469 35.484375 L 13.710938 35.152344 Z M 13.710938 26.84375 "/>
<path style=" stroke:none;fill-rule:nonzero;fill:rgb(75.294118%,89.019608%,90.588235%);fill-opacity:1;" d="M 32.585938 23.449219 L 26.613281 24.523438 L 26.613281 29.03125 C 26.613281 30.066406 27.023438 31.054688 27.753906 31.785156 L 28.226562 32.257812 L 33.976562 31.503906 Z M 32.585938 23.449219 "/>
<path style=" stroke:none;fill-rule:nonzero;fill:rgb(75.294118%,89.019608%,90.588235%);fill-opacity:1;" d="M 44.8125 32.675781 L 42.359375 18.566406 C 41.820312 18.535156 41.273438 18.5625 40.71875 18.660156 C 40.140625 18.765625 39.597656 18.9375 39.082031 19.167969 L 41.429688 33.25 C 42.019531 33.296875 42.621094 33.273438 43.226562 33.164062 C 43.785156 33.066406 44.3125 32.894531 44.8125 32.675781 Z M 44.8125 32.675781 "/>
<path style=" stroke:none;fill-rule:nonzero;fill:rgb(20%,20%,20%);fill-opacity:1;" d="M 49.878906 24.496094 C 49.5 22.320312 48.308594 20.433594 46.519531 19.179688 C 44.777344 17.957031 42.667969 17.496094 40.574219 17.867188 C 38.675781 18.210938 37 19.222656 35.796875 20.707031 C 35.679688 20.574219 35.546875 20.453125 35.394531 20.347656 C 34.871094 19.980469 34.238281 19.839844 33.605469 19.953125 C 32.300781 20.1875 31.421875 21.457031 31.652344 22.777344 L 31.652344 22.796875 L 27.339844 23.570312 C 27.0625 22.539062 26.121094 21.773438 25 21.773438 C 24.378906 21.773438 23.816406 22.015625 23.386719 22.402344 C 22.957031 22.015625 22.394531 21.773438 21.773438 21.773438 C 20.914062 21.773438 20.164062 22.226562 19.734375 22.902344 C 19.382812 22.703125 18.980469 22.582031 18.546875 22.582031 C 17.433594 22.582031 16.5 23.34375 16.222656 24.371094 C 15.945312 24.257812 15.640625 24.195312 15.324219 24.195312 C 14.144531 24.195312 13.164062 25.042969 12.949219 26.160156 L 10.191406 26.65625 L 5.109375 29.460938 L 5.222656 30.125 C 4.015625 30.585938 3.230469 31.535156 3.242188 32.558594 L 1.992188 33.183594 C 0.761719 33.796875 0 35.03125 0 36.40625 C 0 37.613281 0.601562 38.734375 1.605469 39.40625 L 3.769531 40.847656 C 4.4375 41.292969 4.839844 42.042969 4.839844 42.847656 C 4.839844 43.882812 4.179688 44.800781 3.195312 45.128906 C 1.285156 45.765625 0 47.546875 0 49.558594 L 0 50 L 1.613281 50 L 1.613281 49.558594 C 1.613281 48.242188 2.453125 47.074219 3.707031 46.65625 C 5.347656 46.109375 6.453125 44.578125 6.453125 42.847656 C 6.453125 41.5 5.785156 40.25 4.664062 39.503906 L 2.5 38.0625 C 1.945312 37.691406 1.613281 37.074219 1.613281 36.40625 C 1.613281 35.648438 2.035156 34.964844 2.714844 34.625 L 3.914062 34.027344 C 3.988281 34.09375 4.0625 34.164062 4.152344 34.226562 C 4.660156 34.582031 5.320312 34.773438 6.027344 34.78125 L 6.140625 35.433594 L 11.867188 36.300781 L 12.902344 36.117188 L 12.902344 37.414062 C 12.902344 39.359375 13.800781 41.171875 15.324219 42.347656 L 15.324219 50 L 27.417969 50 L 27.417969 41.464844 L 28.796875 40.085938 C 29.972656 38.910156 30.644531 37.285156 30.644531 35.621094 L 30.644531 32.753906 L 33.316406 32.40625 L 33.324219 32.449219 C 33.433594 33.097656 33.792969 33.660156 34.324219 34.035156 C 34.734375 34.324219 35.207031 34.472656 35.691406 34.472656 C 35.835938 34.472656 35.976562 34.457031 36.117188 34.433594 C 36.953125 34.28125 37.609375 33.707031 37.917969 32.964844 C 39.144531 33.699219 40.535156 34.085938 41.960938 34.085938 C 42.425781 34.085938 42.898438 34.042969 43.367188 33.960938 C 47.722656 33.175781 50.644531 28.929688 49.878906 24.496094 Z M 5.074219 32.902344 C 4.984375 32.839844 4.867188 32.734375 4.84375 32.597656 C 4.804688 32.367188 5.046875 32.019531 5.507812 31.761719 L 5.746094 33.140625 C 5.457031 33.09375 5.222656 33.007812 5.074219 32.902344 Z M 6.894531 30.320312 L 9.863281 28.679688 L 10.871094 34.519531 L 7.53125 34.015625 Z M 12.511719 34.546875 L 11.394531 28.078125 L 12.902344 27.804688 L 12.902344 34.476562 Z M 29.03125 35.621094 C 29.03125 36.859375 28.53125 38.070312 27.65625 38.945312 L 25.808594 40.796875 L 25.808594 48.386719 L 16.9375 48.386719 L 16.9375 41.503906 L 16.578125 41.265625 C 15.285156 40.40625 14.515625 38.964844 14.515625 37.414062 L 14.515625 26.613281 C 14.515625 26.167969 14.878906 25.804688 15.324219 25.804688 C 15.769531 25.804688 16.128906 26.167969 16.128906 26.613281 L 16.128906 31.453125 L 17.742188 31.453125 L 17.742188 25 C 17.742188 24.554688 18.101562 24.195312 18.546875 24.195312 C 18.992188 24.195312 19.355469 24.554688 19.355469 25 L 19.355469 31.453125 L 20.96875 31.453125 L 20.96875 24.195312 C 20.96875 23.75 21.328125 23.386719 21.773438 23.386719 C 22.21875 23.386719 22.582031 23.75 22.582031 24.195312 L 22.582031 31.453125 L 24.195312 31.453125 L 24.195312 24.195312 C 24.195312 23.75 24.554688 23.386719 25 23.386719 C 25.445312 23.386719 25.808594 23.75 25.808594 24.195312 L 25.808594 28.363281 C 25.808594 30.027344 26.480469 31.652344 27.65625 32.828125 L 27.9375 33.109375 L 29.03125 32.964844 Z M 33.039062 30.816406 L 28.535156 31.402344 C 27.820312 30.5625 27.417969 29.472656 27.417969 28.363281 L 27.417969 25.195312 L 31.929688 24.382812 L 32.351562 26.824219 L 31.558594 26.964844 L 31.84375 28.554688 L 32.625 28.414062 L 32.679688 28.71875 Z M 35.835938 32.84375 C 35.628906 32.882812 35.421875 32.835938 35.25 32.714844 C 35.070312 32.589844 34.953125 32.398438 34.914062 32.175781 L 33.890625 26.273438 L 33.242188 22.507812 C 33.164062 22.054688 33.453125 21.621094 33.890625 21.542969 C 33.9375 21.53125 33.980469 21.527344 34.027344 21.527344 C 34.183594 21.527344 34.339844 21.578125 34.472656 21.671875 C 34.652344 21.796875 34.773438 21.988281 34.8125 22.210938 L 36.484375 31.882812 C 36.5625 32.332031 36.269531 32.765625 35.835938 32.84375 Z M 43.082031 32.371094 C 42.820312 32.417969 42.554688 32.445312 42.292969 32.460938 L 41.953125 30.507812 L 40.367188 30.78125 L 40.628906 32.320312 C 39.667969 32.109375 38.761719 31.671875 37.972656 31.027344 L 36.5 22.511719 C 37.023438 21.628906 37.734375 20.902344 38.566406 20.367188 L 40.085938 29.167969 L 41.675781 28.894531 L 40.078125 19.652344 C 40.335938 19.574219 40.59375 19.503906 40.859375 19.457031 C 41.125 19.40625 41.386719 19.382812 41.652344 19.371094 L 43.867188 32.171875 C 43.613281 32.253906 43.351562 32.324219 43.082031 32.371094 Z M 45.378906 31.464844 L 43.3125 19.5 C 44.121094 19.675781 44.894531 20.011719 45.597656 20.503906 C 47.03125 21.507812 47.988281 23.023438 48.289062 24.773438 C 48.753906 27.476562 47.523438 30.085938 45.378906 31.464844 Z M 45.378906 31.464844 "/>
<path style=" stroke:none;fill-rule:nonzero;fill:rgb(20%,20%,20%);fill-opacity:1;" d="M 30.257812 28.839844 L 28.679688 29.125 L 28.394531 27.539062 L 29.972656 27.253906 Z M 30.257812 28.839844 "/>
<path style=" stroke:none;fill-rule:nonzero;fill:rgb(20%,20%,20%);fill-opacity:1;" d="M 2.417969 20.96875 C 3.753906 20.96875 4.839844 19.882812 4.839844 18.546875 L 4.839844 10.484375 L 8.871094 10.484375 L 8.871094 8.871094 L 3.226562 8.871094 L 3.226562 16.277344 C 2.972656 16.1875 2.703125 16.128906 2.417969 16.128906 C 1.085938 16.128906 0 17.214844 0 18.546875 C 0 19.882812 1.085938 20.96875 2.417969 20.96875 Z M 2.417969 17.742188 C 2.863281 17.742188 3.226562 18.101562 3.226562 18.546875 C 3.226562 18.992188 2.863281 19.355469 2.417969 19.355469 C 1.972656 19.355469 1.613281 18.992188 1.613281 18.546875 C 1.613281 18.101562 1.972656 17.742188 2.417969 17.742188 Z M 2.417969 17.742188 "/>
<path style=" stroke:none;fill-rule:nonzero;fill:rgb(20%,20%,20%);fill-opacity:1;" d="M 23.386719 12.097656 C 24.722656 12.097656 25.808594 11.011719 25.808594 9.675781 L 25.808594 4.855469 C 28.867188 4.9375 31.910156 5.660156 34.675781 6.964844 L 34.675781 9.019531 C 34.425781 8.929688 34.15625 8.871094 33.871094 8.871094 C 32.539062 8.871094 31.453125 9.957031 31.453125 11.289062 C 31.453125 12.625 32.539062 13.710938 33.871094 13.710938 C 35.203125 13.710938 36.289062 12.625 36.289062 11.289062 L 36.289062 2.726562 L 35.84375 2.503906 C 32.566406 0.867188 28.898438 0 25.234375 0 L 24.195312 0 L 24.195312 7.40625 C 23.941406 7.316406 23.671875 7.257812 23.386719 7.257812 C 22.054688 7.257812 20.96875 8.34375 20.96875 9.675781 C 20.96875 11.011719 22.054688 12.097656 23.386719 12.097656 Z M 33.871094 12.097656 C 33.425781 12.097656 33.066406 11.734375 33.066406 11.289062 C 33.066406 10.84375 33.425781 10.484375 33.871094 10.484375 C 34.316406 10.484375 34.675781 10.84375 34.675781 11.289062 C 34.675781 11.734375 34.316406 12.097656 33.871094 12.097656 Z M 34.675781 3.730469 L 34.675781 5.1875 C 31.882812 3.980469 28.851562 3.316406 25.808594 3.242188 L 25.808594 1.621094 C 28.863281 1.699219 31.910156 2.425781 34.675781 3.730469 Z M 23.386719 8.871094 C 23.832031 8.871094 24.195312 9.230469 24.195312 9.675781 C 24.195312 10.121094 23.832031 10.484375 23.386719 10.484375 C 22.941406 10.484375 22.582031 10.121094 22.582031 9.675781 C 22.582031 9.230469 22.941406 8.871094 23.386719 8.871094 Z M 23.386719 8.871094 "/>
<path style=" stroke:none;fill-rule:nonzero;fill:rgb(20%,20%,20%);fill-opacity:1;" d="M 40.324219 45.308594 C 40.070312 45.21875 39.800781 45.160156 39.515625 45.160156 C 38.183594 45.160156 37.097656 46.246094 37.097656 47.582031 C 37.097656 48.914062 38.183594 50 39.515625 50 C 40.851562 50 41.9375 48.914062 41.9375 47.582031 L 41.9375 39.515625 L 45.96875 39.515625 L 45.96875 37.902344 L 40.324219 37.902344 Z M 39.515625 48.386719 C 39.070312 48.386719 38.710938 48.027344 38.710938 47.582031 C 38.710938 47.136719 39.070312 46.773438 39.515625 46.773438 C 39.960938 46.773438 40.324219 47.136719 40.324219 47.582031 C 40.324219 48.027344 39.960938 48.386719 39.515625 48.386719 Z M 39.515625 48.386719 "/>
</g>
</svg>
