<?xml version="1.0" encoding="UTF-8"?>
<svg xmlns="http://www.w3.org/2000/svg" xmlns:xlink="http://www.w3.org/1999/xlink" width="50pt" height="50pt" viewBox="0 0 50 50" version="1.1">
<g id="surface1">
<path style=" stroke:none;fill-rule:nonzero;fill:rgb(75.294118%,89.019608%,90.588235%);fill-opacity:1;" d="M 38.710938 28.628906 C 38.496094 28.628906 38.289062 28.546875 38.132812 28.386719 C 37.90625 28.152344 37.839844 27.804688 37.96875 27.503906 L 38.640625 25.9375 C 39.828125 23.164062 42.546875 21.371094 45.566406 21.371094 C 47.121094 21.371094 48.386719 22.636719 48.386719 24.195312 C 48.386719 25.75 47.121094 27.015625 45.566406 27.015625 C 43.796875 27.015625 42.066406 27.347656 40.421875 28.007812 L 39.007812 28.570312 C 38.910156 28.609375 38.808594 28.628906 38.710938 28.628906 Z M 38.710938 28.628906 "/>
<path style=" stroke:none;fill-rule:nonzero;fill:rgb(75.294118%,89.019608%,90.588235%);fill-opacity:1;" d="M 40.324219 20.566406 C 40.25 20.566406 40.179688 20.554688 40.105469 20.535156 C 39.757812 20.4375 39.515625 20.121094 39.515625 19.757812 L 39.515625 17.308594 C 39.515625 15.667969 39.679688 14.023438 40 12.417969 C 40.269531 11.0625 41.46875 10.082031 42.851562 10.082031 L 43.058594 10.082031 C 44.664062 10.082031 45.96875 11.382812 45.96875 12.988281 C 45.96875 13.960938 45.484375 14.867188 44.671875 15.40625 C 43.800781 15.988281 43.054688 16.769531 42.515625 17.671875 L 41.015625 20.171875 C 40.867188 20.421875 40.601562 20.566406 40.324219 20.566406 Z M 40.324219 20.566406 "/>
<path style=" stroke:none;fill-rule:nonzero;fill:rgb(75.294118%,89.019608%,90.588235%);fill-opacity:1;" d="M 9.675781 28.628906 C 9.578125 28.628906 9.476562 28.609375 9.378906 28.570312 L 7.96875 28.007812 C 6.324219 27.347656 4.589844 27.015625 2.824219 27.015625 C 1.265625 27.015625 0 25.75 0 24.195312 C 0 22.636719 1.265625 21.371094 2.824219 21.371094 C 5.839844 21.371094 8.558594 23.164062 9.746094 25.9375 L 10.417969 27.503906 C 10.546875 27.804688 10.480469 28.152344 10.253906 28.386719 C 10.097656 28.546875 9.890625 28.628906 9.675781 28.628906 Z M 9.675781 28.628906 "/>
<path style=" stroke:none;fill-rule:nonzero;fill:rgb(75.294118%,89.019608%,90.588235%);fill-opacity:1;" d="M 8.066406 20.566406 C 7.785156 20.566406 7.519531 20.421875 7.375 20.171875 L 5.871094 17.671875 C 5.332031 16.769531 4.585938 15.988281 3.714844 15.40625 C 2.902344 14.867188 2.417969 13.960938 2.417969 12.988281 C 2.417969 11.382812 3.722656 10.082031 5.328125 10.082031 L 5.535156 10.082031 C 6.917969 10.082031 8.117188 11.0625 8.386719 12.417969 C 8.707031 14.023438 8.871094 15.667969 8.871094 17.308594 L 8.871094 19.757812 C 8.871094 20.121094 8.628906 20.4375 8.28125 20.535156 C 8.207031 20.554688 8.136719 20.566406 8.066406 20.566406 Z M 8.066406 20.566406 "/>
<path style=" stroke:none;fill-rule:nonzero;fill:rgb(0%,0%,0%);fill-opacity:1;" d="M 44.589844 42.171875 C 43.632812 43.128906 42.808594 43.953125 41.125 43.953125 C 39.441406 43.953125 38.617188 43.128906 37.660156 42.171875 C 36.605469 41.117188 35.40625 39.917969 33.058594 39.917969 C 30.707031 39.917969 29.511719 41.117188 28.457031 42.171875 C 27.5 43.128906 26.675781 43.953125 24.996094 43.953125 C 23.3125 43.953125 22.488281 43.128906 21.53125 42.171875 C 20.476562 41.117188 19.28125 39.917969 16.929688 39.917969 C 14.578125 39.917969 13.382812 41.117188 12.328125 42.171875 C 11.375 43.128906 10.546875 43.953125 8.867188 43.953125 C 7.1875 43.953125 6.363281 43.128906 5.40625 42.171875 C 4.351562 41.117188 3.15625 39.917969 0.804688 39.917969 L 0 39.917969 L 0 41.53125 L 0.804688 41.53125 C 2.488281 41.53125 3.3125 42.355469 4.265625 43.3125 C 5.320312 44.367188 6.519531 45.566406 8.867188 45.566406 C 11.21875 45.566406 12.414062 44.367188 13.46875 43.3125 C 14.421875 42.355469 15.246094 41.53125 16.929688 41.53125 C 18.609375 41.53125 19.4375 42.355469 20.390625 43.3125 C 21.449219 44.367188 22.644531 45.566406 24.996094 45.566406 C 27.34375 45.566406 28.539062 44.367188 29.597656 43.3125 C 30.550781 42.355469 31.375 41.53125 33.058594 41.53125 C 34.742188 41.53125 35.566406 42.355469 36.519531 43.3125 C 37.578125 44.367188 38.773438 45.566406 41.125 45.566406 C 43.476562 45.566406 44.671875 44.367188 45.730469 43.3125 C 46.683594 42.355469 47.511719 41.53125 49.195312 41.53125 L 50 41.53125 L 50 39.917969 L 49.195312 39.917969 C 46.84375 39.917969 45.644531 41.117188 44.589844 42.171875 Z M 44.589844 42.171875 "/>
<path style=" stroke:none;fill-rule:nonzero;fill:rgb(0%,0%,0%);fill-opacity:1;" d="M 44.589844 36.527344 C 43.632812 37.480469 42.808594 38.304688 41.125 38.304688 C 39.441406 38.304688 38.617188 37.480469 37.660156 36.527344 C 36.605469 35.46875 35.40625 34.273438 33.058594 34.273438 C 30.707031 34.273438 29.511719 35.46875 28.457031 36.527344 C 27.5 37.480469 26.675781 38.304688 24.996094 38.304688 C 23.3125 38.304688 22.488281 37.480469 21.53125 36.527344 C 20.476562 35.46875 19.28125 34.273438 16.929688 34.273438 C 14.578125 34.273438 13.382812 35.46875 12.328125 36.527344 C 11.375 37.480469 10.546875 38.304688 8.867188 38.304688 C 7.1875 38.304688 6.363281 37.480469 5.40625 36.527344 C 4.351562 35.472656 3.15625 34.273438 0.804688 34.273438 L 0 34.273438 L 0 35.886719 L 0.804688 35.886719 C 2.488281 35.886719 3.3125 36.710938 4.265625 37.667969 C 5.320312 38.722656 6.519531 39.917969 8.867188 39.917969 C 11.21875 39.917969 12.414062 38.722656 13.46875 37.667969 C 14.421875 36.710938 15.246094 35.886719 16.929688 35.886719 C 18.609375 35.886719 19.4375 36.710938 20.390625 37.667969 C 21.449219 38.722656 22.644531 39.917969 24.996094 39.917969 C 27.34375 39.917969 28.539062 38.722656 29.597656 37.667969 C 30.550781 36.710938 31.375 35.886719 33.058594 35.886719 C 34.742188 35.886719 35.566406 36.710938 36.519531 37.667969 C 37.578125 38.722656 38.773438 39.917969 41.125 39.917969 C 43.476562 39.917969 44.671875 38.722656 45.730469 37.667969 C 46.683594 36.710938 47.511719 35.886719 49.195312 35.886719 L 50 35.886719 L 50 34.273438 L 49.195312 34.273438 C 46.84375 34.273438 45.644531 35.46875 44.589844 36.527344 Z M 44.589844 36.527344 "/>
<path style=" stroke:none;fill-rule:nonzero;fill:rgb(0%,0%,0%);fill-opacity:1;" d="M 44.589844 30.882812 C 43.632812 31.835938 42.808594 32.660156 41.125 32.660156 C 39.441406 32.660156 38.617188 31.835938 37.660156 30.882812 C 36.949219 30.167969 36.160156 29.398438 35.003906 28.96875 C 36.371094 26.964844 37.097656 24.636719 37.097656 22.175781 L 37.097656 17.339844 C 37.097656 10.667969 31.671875 5.242188 25 5.242188 C 18.328125 5.242188 12.902344 10.667969 12.902344 17.339844 L 12.902344 22.175781 C 12.902344 24.632812 13.625 26.960938 14.992188 28.964844 C 13.832031 29.394531 13.042969 30.167969 12.328125 30.882812 C 11.375 31.835938 10.546875 32.660156 8.867188 32.660156 C 7.1875 32.660156 6.363281 31.835938 5.40625 30.882812 C 4.351562 29.824219 3.15625 28.628906 0.804688 28.628906 L 0 28.628906 L 0 30.242188 L 0.804688 30.242188 C 2.488281 30.242188 3.3125 31.066406 4.265625 32.023438 C 5.320312 33.078125 6.519531 34.273438 8.867188 34.273438 C 11.21875 34.273438 12.414062 33.078125 13.46875 32.023438 C 14.421875 31.066406 15.246094 30.242188 16.929688 30.242188 C 18.609375 30.242188 19.4375 31.066406 20.390625 32.023438 C 21.449219 33.078125 22.644531 34.273438 24.996094 34.273438 C 27.34375 34.273438 28.539062 33.078125 29.597656 32.023438 C 30.550781 31.066406 31.375 30.242188 33.058594 30.242188 C 34.742188 30.242188 35.566406 31.066406 36.519531 32.023438 C 37.578125 33.078125 38.773438 34.273438 41.125 34.273438 C 43.476562 34.273438 44.671875 33.078125 45.730469 32.023438 C 46.683594 31.066406 47.511719 30.242188 49.195312 30.242188 L 50 30.242188 L 50 28.628906 L 49.195312 28.628906 C 46.84375 28.628906 45.644531 29.824219 44.589844 30.882812 Z M 33.757812 21.371094 C 33.394531 19.984375 32.144531 18.953125 30.644531 18.953125 L 29.03125 18.953125 C 27.535156 18.953125 26.28125 19.984375 25.921875 21.371094 L 24.078125 21.371094 C 23.71875 19.984375 22.464844 18.953125 20.96875 18.953125 L 19.355469 18.953125 C 17.855469 18.953125 16.605469 19.984375 16.242188 21.371094 L 14.515625 21.371094 L 14.515625 18.144531 L 35.484375 18.144531 L 35.484375 21.371094 Z M 32.257812 22.175781 C 32.257812 23.066406 31.535156 23.789062 30.644531 23.789062 L 29.03125 23.789062 C 28.144531 23.789062 27.417969 23.066406 27.417969 22.175781 C 27.417969 21.289062 28.144531 20.566406 29.03125 20.566406 L 30.644531 20.566406 C 31.535156 20.566406 32.257812 21.289062 32.257812 22.175781 Z M 22.582031 22.175781 C 22.582031 23.066406 21.855469 23.789062 20.96875 23.789062 L 19.355469 23.789062 C 18.464844 23.789062 17.742188 23.066406 17.742188 22.175781 C 17.742188 21.289062 18.464844 20.566406 19.355469 20.566406 L 20.96875 20.566406 C 21.855469 20.566406 22.582031 21.289062 22.582031 22.175781 Z M 25 6.855469 C 30.507812 6.855469 35.027344 11.128906 35.441406 16.53125 L 14.558594 16.53125 C 14.972656 11.128906 19.492188 6.855469 25 6.855469 Z M 28.457031 30.882812 C 27.5 31.835938 26.675781 32.660156 24.996094 32.660156 C 23.3125 32.660156 22.488281 31.835938 21.53125 30.882812 C 20.476562 29.824219 19.28125 28.628906 16.929688 28.628906 C 16.863281 28.628906 16.808594 28.640625 16.746094 28.640625 C 15.453125 26.996094 14.703125 25.054688 14.550781 22.984375 L 16.242188 22.984375 C 16.605469 24.371094 17.855469 25.402344 19.355469 25.402344 L 20.96875 25.402344 C 22.464844 25.402344 23.71875 24.371094 24.078125 22.984375 L 25.921875 22.984375 C 26.28125 24.371094 27.535156 25.402344 29.03125 25.402344 L 30.644531 25.402344 C 32.144531 25.402344 33.394531 24.371094 33.757812 22.984375 L 35.449219 22.984375 C 35.296875 25.054688 34.546875 26.996094 33.253906 28.640625 C 33.183594 28.640625 33.125 28.628906 33.058594 28.628906 C 30.707031 28.628906 29.511719 29.824219 28.457031 30.882812 Z M 28.457031 30.882812 "/>
<path style=" stroke:none;fill-rule:nonzero;fill:rgb(0%,0%,0%);fill-opacity:1;" d="M 45.160156 18.144531 L 46.773438 18.144531 L 46.773438 19.757812 L 45.160156 19.757812 Z M 45.160156 18.144531 "/>
<path style=" stroke:none;fill-rule:nonzero;fill:rgb(0%,0%,0%);fill-opacity:1;" d="M 48.386719 4.433594 L 50 4.433594 L 50 6.046875 L 48.386719 6.046875 Z M 48.386719 4.433594 "/>
<path style=" stroke:none;fill-rule:nonzero;fill:rgb(0%,0%,0%);fill-opacity:1;" d="M 37.097656 8.46875 L 38.710938 8.46875 L 38.710938 10.082031 L 37.097656 10.082031 Z M 37.097656 8.46875 "/>
<path style=" stroke:none;fill-rule:nonzero;fill:rgb(0%,0%,0%);fill-opacity:1;" d="M 11.289062 6.046875 L 12.902344 6.046875 L 12.902344 7.660156 L 11.289062 7.660156 Z M 11.289062 6.046875 "/>
<path style=" stroke:none;fill-rule:nonzero;fill:rgb(0%,0%,0%);fill-opacity:1;" d="M 9.675781 21.371094 L 11.289062 21.371094 L 11.289062 22.984375 L 9.675781 22.984375 Z M 9.675781 21.371094 "/>
<path style=" stroke:none;fill-rule:nonzero;fill:rgb(0%,0%,0%);fill-opacity:1;" d="M 0 6.855469 L 1.613281 6.855469 L 1.613281 8.46875 L 0 8.46875 Z M 0 6.855469 "/>
</g>
</svg>
