<?xml version="1.0" encoding="UTF-8"?>
<svg xmlns="http://www.w3.org/2000/svg" xmlns:xlink="http://www.w3.org/1999/xlink" width="50pt" height="50pt" viewBox="0 0 50 50" version="1.1">
<g id="surface1">
<path style=" stroke:none;fill-rule:nonzero;fill:rgb(75.294118%,89.019608%,90.588235%);fill-opacity:1;" d="M 19.355469 31.453125 L 40.324219 31.453125 C 42.996094 31.453125 45.160156 33.617188 45.160156 36.289062 L 45.160156 46.53125 C 45.160156 48 43.96875 49.195312 42.5 49.195312 C 41.640625 49.195312 40.832031 48.777344 40.332031 48.078125 L 37.097656 43.546875 L 22.582031 43.546875 L 19.34375 48.078125 C 18.84375 48.777344 18.039062 49.195312 17.179688 49.195312 C 15.707031 49.195312 14.515625 48 14.515625 46.53125 L 14.515625 36.289062 C 14.515625 33.617188 16.683594 31.453125 19.355469 31.453125 Z M 19.355469 31.453125 "/>
<path style=" stroke:none;fill-rule:nonzero;fill:rgb(75.294118%,89.019608%,90.588235%);fill-opacity:1;" d="M 34.675781 24.195312 L 36.289062 24.195312 L 36.289062 25.804688 L 34.675781 25.804688 Z M 34.675781 24.195312 "/>
<path style=" stroke:none;fill-rule:nonzero;fill:rgb(75.294118%,89.019608%,90.588235%);fill-opacity:1;" d="M 37.902344 24.195312 L 39.515625 24.195312 L 39.515625 25.804688 L 37.902344 25.804688 Z M 37.902344 24.195312 "/>
<path style=" stroke:none;fill-rule:nonzero;fill:rgb(75.294118%,89.019608%,90.588235%);fill-opacity:1;" d="M 41.128906 24.195312 L 42.742188 24.195312 L 42.742188 25.804688 L 41.128906 25.804688 Z M 41.128906 24.195312 "/>
<path style=" stroke:none;fill-rule:nonzero;fill:rgb(75.294118%,89.019608%,90.588235%);fill-opacity:1;" d="M 34.675781 12.097656 L 36.289062 12.097656 L 36.289062 13.710938 L 34.675781 13.710938 Z M 34.675781 12.097656 "/>
<path style=" stroke:none;fill-rule:nonzero;fill:rgb(75.294118%,89.019608%,90.588235%);fill-opacity:1;" d="M 37.902344 12.097656 L 39.515625 12.097656 L 39.515625 13.710938 L 37.902344 13.710938 Z M 37.902344 12.097656 "/>
<path style=" stroke:none;fill-rule:nonzero;fill:rgb(75.294118%,89.019608%,90.588235%);fill-opacity:1;" d="M 41.128906 12.097656 L 42.742188 12.097656 L 42.742188 13.710938 L 41.128906 13.710938 Z M 41.128906 12.097656 "/>
<path style=" stroke:none;fill-rule:nonzero;fill:rgb(24.705882%,22.745098%,20.392157%);fill-opacity:1;" d="M 19.355469 34.675781 L 20.96875 34.675781 L 20.96875 36.289062 L 19.355469 36.289062 Z M 19.355469 34.675781 "/>
<path style=" stroke:none;fill-rule:nonzero;fill:rgb(24.705882%,22.745098%,20.392157%);fill-opacity:1;" d="M 16.933594 37.097656 L 18.546875 37.097656 L 18.546875 38.710938 L 16.933594 38.710938 Z M 16.933594 37.097656 "/>
<path style=" stroke:none;fill-rule:nonzero;fill:rgb(24.705882%,22.745098%,20.392157%);fill-opacity:1;" d="M 21.773438 37.097656 L 23.386719 37.097656 L 23.386719 38.710938 L 21.773438 38.710938 Z M 21.773438 37.097656 "/>
<path style=" stroke:none;fill-rule:nonzero;fill:rgb(24.705882%,22.745098%,20.392157%);fill-opacity:1;" d="M 19.355469 39.515625 L 20.96875 39.515625 L 20.96875 41.128906 L 19.355469 41.128906 Z M 19.355469 39.515625 "/>
<path style=" stroke:none;fill-rule:nonzero;fill:rgb(24.705882%,22.745098%,20.392157%);fill-opacity:1;" d="M 37.097656 38.710938 L 38.710938 38.710938 L 38.710938 40.324219 L 40.324219 40.324219 L 40.324219 38.710938 L 41.933594 38.710938 L 41.933594 37.097656 L 40.324219 37.097656 L 40.324219 35.484375 L 38.710938 35.484375 L 38.710938 37.097656 L 37.097656 37.097656 Z M 37.097656 38.710938 "/>
<path style=" stroke:none;fill-rule:nonzero;fill:rgb(24.705882%,22.745098%,20.392157%);fill-opacity:1;" d="M 31.453125 39.515625 L 33.066406 39.515625 L 33.066406 41.128906 L 31.453125 41.128906 Z M 31.453125 39.515625 "/>
<path style=" stroke:none;fill-rule:nonzero;fill:rgb(24.705882%,22.745098%,20.392157%);fill-opacity:1;" d="M 26.613281 39.515625 L 28.226562 39.515625 L 28.226562 41.128906 L 26.613281 41.128906 Z M 26.613281 39.515625 "/>
<path style=" stroke:none;fill-rule:nonzero;fill:rgb(24.705882%,22.745098%,20.392157%);fill-opacity:1;" d="M 46.773438 15.324219 L 29.03125 15.324219 L 29.03125 16.933594 L 46.773438 16.933594 C 47.664062 16.933594 48.386719 17.660156 48.386719 18.546875 L 48.386719 25.804688 C 48.386719 26.695312 47.664062 27.417969 46.773438 27.417969 L 31.453125 27.417969 C 30.117188 27.417969 29.03125 28.503906 29.03125 29.839844 L 29.03125 30.644531 L 19.355469 30.644531 C 16.242188 30.644531 13.710938 33.179688 13.710938 36.289062 L 13.710938 46.53125 C 13.710938 48.445312 15.265625 50 17.179688 50 C 18.296875 50 19.351562 49.457031 20 48.546875 L 22.996094 44.355469 L 36.683594 44.355469 L 39.675781 48.546875 C 40.324219 49.457031 41.378906 50 42.5 50 C 44.410156 50 45.96875 48.445312 45.96875 46.53125 L 45.96875 36.289062 C 45.96875 33.179688 43.433594 30.644531 40.324219 30.644531 L 30.644531 30.644531 L 30.644531 29.839844 C 30.644531 29.394531 31.007812 29.03125 31.453125 29.03125 L 46.773438 29.03125 C 48.554688 29.03125 50 27.585938 50 25.804688 L 50 18.546875 C 50 16.769531 48.554688 15.324219 46.773438 15.324219 Z M 26.613281 32.257812 L 33.066406 32.257812 L 33.066406 33.871094 L 26.613281 33.871094 Z M 44.355469 36.289062 L 44.355469 46.53125 C 44.355469 47.554688 43.523438 48.386719 42.5 48.386719 C 41.902344 48.386719 41.335938 48.097656 40.988281 47.609375 L 37.511719 42.742188 L 22.164062 42.742188 L 18.6875 47.609375 C 18.339844 48.097656 17.777344 48.386719 17.179688 48.386719 C 16.15625 48.386719 15.324219 47.554688 15.324219 46.53125 L 15.324219 36.289062 C 15.324219 34.066406 17.132812 32.257812 19.355469 32.257812 L 25 32.257812 L 25 35.484375 L 34.675781 35.484375 L 34.675781 32.257812 L 40.324219 32.257812 C 42.546875 32.257812 44.355469 34.066406 44.355469 36.289062 Z M 44.355469 36.289062 "/>
<path style=" stroke:none;fill-rule:nonzero;fill:rgb(24.705882%,22.745098%,20.392157%);fill-opacity:1;" d="M 27.417969 13.710938 C 27.417969 6.148438 21.269531 0 13.710938 0 C 6.148438 0 0 6.148438 0 13.710938 L 0 29.03125 L 27.417969 29.03125 Z M 25.804688 27.417969 L 24.195312 27.417969 L 24.195312 24.195312 L 22.582031 24.195312 L 22.582031 27.417969 L 20.96875 27.417969 L 20.96875 24.195312 L 19.355469 24.195312 L 19.355469 27.417969 L 17.742188 27.417969 L 17.742188 24.195312 L 16.128906 24.195312 L 16.128906 27.417969 L 14.515625 27.417969 L 14.515625 24.195312 L 12.902344 24.195312 L 12.902344 27.417969 L 11.289062 27.417969 L 11.289062 24.195312 L 9.675781 24.195312 L 9.675781 27.417969 L 8.066406 27.417969 L 8.066406 24.195312 L 6.453125 24.195312 L 6.453125 27.417969 L 4.839844 27.417969 L 4.839844 24.195312 L 3.226562 24.195312 L 3.226562 27.417969 L 1.613281 27.417969 L 1.613281 13.710938 C 1.613281 7.039062 7.039062 1.613281 13.710938 1.613281 C 20.378906 1.613281 25.804688 7.039062 25.804688 13.710938 Z M 25.804688 27.417969 "/>
<path style=" stroke:none;fill-rule:nonzero;fill:rgb(75.294118%,89.019608%,90.588235%);fill-opacity:1;" d="M 8.066406 15.324219 C 6.285156 15.324219 4.839844 13.875 4.839844 12.097656 C 4.839844 10.316406 6.285156 8.871094 8.066406 8.871094 C 9.84375 8.871094 11.289062 10.316406 11.289062 12.097656 C 11.289062 13.875 9.84375 15.324219 8.066406 15.324219 Z M 8.066406 10.484375 C 7.175781 10.484375 6.453125 11.207031 6.453125 12.097656 C 6.453125 12.984375 7.175781 13.710938 8.066406 13.710938 C 8.953125 13.710938 9.675781 12.984375 9.675781 12.097656 C 9.675781 11.207031 8.953125 10.484375 8.066406 10.484375 Z M 8.066406 10.484375 "/>
<path style=" stroke:none;fill-rule:nonzero;fill:rgb(75.294118%,89.019608%,90.588235%);fill-opacity:1;" d="M 19.355469 15.324219 C 17.574219 15.324219 16.128906 13.875 16.128906 12.097656 C 16.128906 10.316406 17.574219 8.871094 19.355469 8.871094 C 21.132812 8.871094 22.582031 10.316406 22.582031 12.097656 C 22.582031 13.875 21.132812 15.324219 19.355469 15.324219 Z M 19.355469 10.484375 C 18.464844 10.484375 17.742188 11.207031 17.742188 12.097656 C 17.742188 12.984375 18.464844 13.710938 19.355469 13.710938 C 20.246094 13.710938 20.96875 12.984375 20.96875 12.097656 C 20.96875 11.207031 20.246094 10.484375 19.355469 10.484375 Z M 19.355469 10.484375 "/>
</g>
</svg>
